<?xml version="1.0" encoding="utf-8"?>
<!-- Generator: Adobe Illustrator 24.0.2, SVG Export Plug-In . SVG Version: 6.00 Build 0)  -->
<svg version="1.1" id="Layer_1" xmlns="http://www.w3.org/2000/svg" xmlns:xlink="http://www.w3.org/1999/xlink" x="0px" y="0px"
	 viewBox="0 0 150 150" style="enable-background:new 0 0 150 150;" xml:space="preserve">
<style type="text/css">
	.st0{fill:#C5C5C5;}
</style>
<g id="Group_86" transform="translate(2.527 0)">
	<path id="Path_128" class="st0" d="M33.8,47.8c0.2,2,0.3,3.9,0.5,6.2c0.4-0.5,0.7-0.7,0.9-1c1.7-2.4,3.4-4.7,5.1-7.1
		c0.7-1.2,2.1-1.7,3.4-1.2c7.4,2.3,15.1,3.5,22.9,3.6c10.9,0.2,21.7-0.8,32.4-2.9c1.8-0.6,3.8,0.2,4.8,1.8c1.9,2.7,4,5.2,6.2,8.2
		c0.1-1.4,0.2-2.4,0.2-3.3c0.7-8.2-0.1-16.4-2.2-24.3c-2.1-9-8.8-16.2-17.6-19.1c-4.8-1.7-10-2-15-1c-7.1,1.7-14.4,2.5-21.7,2.4
		C46,10,38.5,9.5,32.6,4c-1.3-1.2-2.6-1.5-3.1,0.9c-0.2,1.2-0.7,2.6-0.9,3.8c-1.2,5.6-1.8,11.2-1.9,16.9c0,7.4,2.4,14.5,6.7,20.5
		C33.6,46.7,33.7,47.2,33.8,47.8z"/>
	<path id="Path_129" class="st0" d="M98.5,49.9c-7.1,0.9-14.3,1.9-21.4,2.5c-11,1-22.1,0-32.7-2.9c-0.7-0.3-1.5,0-1.9,0.7
		c-1.9,2.7-3.7,5.4-5.7,7.9c-1.5,1.8-2.2,4.1-1.9,6.4c0.5,12.1,5.8,23.6,14.6,31.9c4.6,4.5,10.5,7.4,16.8,8.6
		c3.9,0.7,8,0.7,11.9-0.1c0.6-0.1,1.1-0.2,1.7-0.4c10.2-3,18.7-10.2,23.4-19.7c3.5-6.8,5.5-14.2,5.8-21.8c0-0.7-0.2-1.5-0.6-2.1
		c-2.5-3.4-5.2-6.7-7.7-10.1C100.3,50,99.3,49.7,98.5,49.9z"/>
</g>
<path id="Path_130" class="st0" d="M126.4,123.7c-2.5-12-9.6-21.7-21.8-21.9c-3.5-0.2-7,0.8-9.9,2.8c-5.8,3.8-12.5,6-19.4,6.2l0,0
	c-7.2,0-14.3-2.2-20.3-6.2c-2.9-2-6.4-2.9-9.9-2.8c-12.3,0.2-19.3,9.9-21.8,21.9c-1.7,7.9-2.8,12.2-5.3,23.6h113.9
	C129.3,135.9,128.1,131.5,126.4,123.7z M105.6,136.1l-5.3-2.8l-5.3,2.8l1-5.9l-4.3-4.2l5.9-0.8l2.6-5.3l2.6,5.3l5.9,0.8l-4.3,4.2
	L105.6,136.1z"/>
</svg>
