<?xml version="1.0" encoding="utf-8"?>
<!-- Generator: Adobe Illustrator 24.0.2, SVG Export Plug-In . SVG Version: 6.00 Build 0)  -->
<svg version="1.1" id="Layer_1" xmlns="http://www.w3.org/2000/svg" xmlns:xlink="http://www.w3.org/1999/xlink" x="0px" y="0px"
	 viewBox="0 0 150 150" style="enable-background:new 0 0 150 150;" xml:space="preserve">
<style type="text/css">
	.st0{fill:#C5C5C5;}
</style>
<path id="Kocverta" class="st0" d="M9.2,140.6h129.6c1.5,0,2.6-1.2,2.6-2.6V65.5L74,119.2C51.5,101.3,29.1,83.5,6.5,65.5v72.4
	C6.5,139.4,7.7,140.6,9.2,140.6C9.2,140.6,9.2,140.6,9.2,140.6z M17.6,69.3v-8.5h112.8v8.6c3.8-3,7.4-5.9,11.1-8.9l-66-51.6
	c-0.9-0.7-2.1-0.7-3,0c-22,17.2-44,34.4-66,51.6C10.2,63.4,13.7,66.2,17.6,69.3z"/>
</svg>
