<?xml version="1.0" encoding="utf-8"?>
<!-- Generator: Adobe Illustrator 24.0.2, SVG Export Plug-In . SVG Version: 6.00 Build 0)  -->
<svg version="1.1" id="Layer_1" xmlns="http://www.w3.org/2000/svg" xmlns:xlink="http://www.w3.org/1999/xlink" x="0px" y="0px"
	 viewBox="0 0 62 62" style="enable-background:new 0 0 62 62;" xml:space="preserve">
<style type="text/css">
	.st0{fill:#F15B5B;}
	.st1{fill:#FFFFFF;}
</style>
<g>
	<path id="Rectangle_12" class="st0" d="M3,0h56c1.7,0,3,1.3,3,3v56c0,1.7-1.3,3-3,3H3c-1.7,0-3-1.3-3-3V3C0,1.3,1.4,0,3,0z"/>
	<g id="Group_80" transform="translate(-1712 -1585.319)">
		<g id="Drop_down_strelica" transform="translate(1757.599 1616.601) rotate(180)">
			<path id="Path_60" class="st1" d="M14.3,12.3c-0.4,0-0.7-0.1-1.1-0.3L0.8,3.4c-0.9-0.6-1.1-1.8-0.5-2.6s1.8-1.1,2.6-0.5l11.4,7.8
				l11.4-7.8c0.9-0.6,2-0.4,2.6,0.5s0.4,2-0.5,2.6l0,0l-12.4,8.5C15,12.2,14.7,12.3,14.3,12.3z"/>
		</g>
		<g id="Drop_down_strelica-2" transform="translate(1757.599 1629.319) rotate(180)">
			<path id="Path_60-2" class="st1" d="M14.3,12.3c-0.4,0-0.7-0.1-1.1-0.3L0.8,3.4c-0.9-0.6-1.1-1.8-0.5-2.6s1.8-1.1,2.6-0.5
				l11.4,7.8l11.4-7.8c0.9-0.6,2-0.4,2.6,0.5s0.4,2-0.5,2.6l0,0l-12.4,8.5C15,12.2,14.7,12.3,14.3,12.3z"/>
		</g>
	</g>
</g>
</svg>
