<?xml version="1.0" encoding="utf-8"?>
<!-- Generator: Adobe Illustrator 24.0.2, SVG Export Plug-In . SVG Version: 6.00 Build 0)  -->
<svg version="1.1" id="Layer_1" xmlns="http://www.w3.org/2000/svg" xmlns:xlink="http://www.w3.org/1999/xlink" x="0px" y="0px"
	 viewBox="0 0 150 150" style="enable-background:new 0 0 150 150;" xml:space="preserve">
<style type="text/css">
	.st0{fill:none;}
	.st1{fill:#C5C5C5;}
</style>
<rect x="52.9" y="48.2" class="st0" width="32" height="32"/>
<g id="Mask_Group_11" transform="translate(-615 -417)">
	<g id="Industrija" transform="translate(613.063 415.05)">
		<path id="Path_131" class="st1" d="M115.6,50.9c16.3,22,11.6,53-10.4,69.3s-53,11.6-69.3-10.4c-12.6-17-13-40.1-1-57.6
			c6.7-9.9,16.8-17,28.5-19.8c14.4-3.8,29.8-0.9,41.7,8c3-3.1,6-6,8.9-8.9C87,10.4,47.9,15.1,26.7,42.1s-16.4,66.1,10.6,87.3
			s66.1,16.4,87.3-10.6c17.7-22.6,17.6-54.3-0.1-76.8C121.5,44.9,118.7,47.9,115.6,50.9z M97.3,48.8C79.8,36.7,55.8,41,43.6,58.5
			s-7.8,41.5,9.7,53.7s41.5,7.8,53.7-9.7c9.1-13.1,9.2-30.4,0.3-43.6c-2.7,2.7-5.3,5.4-8,8c-0.7,0.5-0.9,1.5-0.4,2.2c0,0,0,0,0,0
			c2.4,4.7,3.2,10,2.3,15.2c-2.1,13.9-15.1,23.5-29,21.4c-0.3,0-0.6-0.1-0.9-0.1c-9.6-1.3-17.5-8.3-20-17.7
			c-3.2-9.2-0.5-19.5,6.7-26c7.8-7.6,19.5-9.4,29.2-4.6c0.4,0.2,1.2,0.4,1.4,0.1C91.5,54.7,94.4,51.7,97.3,48.8z M137.6,22.6
			c1.6-2.6,1.7-3.5,0.6-4.6c-1.6-1.6-3.1-0.8-4.8,0.6c0-3.3,0-6.4,0-9.4c-0.1-0.7-0.3-1.3-0.7-1.9c-0.6,0.2-1.2,0.5-1.8,0.8
			c-3.4,3.4-6.8,6.8-10.1,10.3c-0.6,0.7-1,1.7-1.1,2.6c-0.1,3.3-0.1,6.7,0,10c0.1,1-0.4,2.1-1.2,2.8C104,48.5,89.4,63,74.8,77.5
			c-0.4,0.4-0.8,0.8-1.2,1.2c-0.9,1-0.8,2.6,0.2,3.5c0,0,0,0,0.1,0.1c0.9,1,2.4,1.1,3.4,0.2c0,0,0,0,0,0c0.4-0.4,0.8-0.7,1.2-1.2
			c14.6-14.5,29.2-29,43.8-43.5c0.6-0.6,1.5-0.9,2.3-1c3.5-0.1,7.1-0.1,10.6-0.2c0.6,0,1.3-0.1,1.8-0.5c3.8-3.8,7.5-7.6,11.2-11.5
			c0.9-0.9,0.5-1.9-0.8-2c-1.1-0.1-2.1,0-3.2,0L137.6,22.6z M79.4,66.6c-7.6-2-15.4,2.5-17.4,10.1c-2,7.6,2.5,15.4,10.1,17.4
			c4,1.1,8.3,0.3,11.7-2c5-3.3,7.2-9.5,5.6-15.3c-0.3,0.3-0.6,0.5-0.9,0.8c-2.6,2.6-5.2,5.3-7.9,7.8c-2.8,2.7-7.3,2.6-10-0.2
			c-2.6-2.7-2.6-7,0-9.8c1-1.1,2.1-2.2,3.2-3.2C75.6,70.4,77.4,68.6,79.4,66.6z"/>
		<path id="Path_132" class="st1" d="M115.6,50.9c3-3,5.9-6,8.9-8.9c21,27,16.1,65.8-10.8,86.8S47.8,144.9,26.9,118
			S10.7,52.2,37.7,31.2c22.5-17.5,54-17.4,76.4,0.3c-2.9,3-5.9,5.9-8.9,8.9c-12-8.9-27.3-11.9-41.7-8C51.8,35.3,41.7,42.3,35,52.3
			c-15.5,22.5-9.8,53.4,12.7,68.9s53.4,9.8,68.9-12.7C128.6,91,128.2,67.9,115.6,50.9L115.6,50.9z"/>
		<path id="Path_133" class="st1" d="M97.3,48.8c-2.9,2.9-5.8,5.8-8.7,8.6c-0.2,0.2-1,0.1-1.4-0.1c-9.7-4.9-21.5-3-29.2,4.6
			c-7.2,6.5-9.9,16.8-6.7,26c2.5,9.4,10.4,16.3,20,17.7c13.8,2.6,27.2-6.6,29.7-20.4c0.1-0.3,0.1-0.6,0.2-0.9
			c0.9-5.2,0-10.5-2.3-15.2c-0.5-0.7-0.3-1.7,0.4-2.2c0,0,0,0,0,0c2.7-2.6,5.4-5.3,8-8c10.3,14.8,8.8,34.8-3.6,47.8
			c-14.5,15.4-38.8,16.2-54.2,1.7s-16.2-38.8-1.7-54.2C60.7,40.4,81.7,38.1,97.3,48.8L97.3,48.8z"/>
		<path id="Path_134" class="st1" d="M137.6,22.6h6.7c1.1,0,2.1-0.1,3.2,0c1.3,0.1,1.7,1.1,0.8,2c-3.7,3.9-7.4,7.7-11.2,11.5
			c-0.5,0.4-1.2,0.6-1.8,0.5c-3.5,0.1-7.1,0-10.6,0.2c-0.9,0.1-1.7,0.4-2.3,1c-14.7,14.5-29.3,29-43.8,43.5
			c-0.4,0.4-0.8,0.8-1.2,1.2c-1.1,0.9-2.8,0.7-3.7-0.5c-0.7-0.9-0.7-2.3,0-3.2c0.4-0.4,0.7-0.8,1.2-1.2
			c14.6-14.6,29.3-29.1,43.9-43.6c0.8-0.7,1.2-1.7,1.2-2.8c-0.1-3.3-0.1-6.7,0-10c0-1,0.4-1.9,1.1-2.6c3.3-3.5,6.7-6.9,10.1-10.3
			c0.5-0.4,1.2-0.7,1.8-0.8c0.3,0.6,0.5,1.2,0.6,1.9c0.1,3,0,6,0,9.4c1.7-1.4,3.2-2.2,4.8-0.6C139.4,19.2,139.3,20,137.6,22.6z"/>
		<path id="Path_135" class="st1" d="M79.4,66.6c-1.9,2-3.8,3.8-5.6,5.6c-1.1,1.1-2.2,2.1-3.2,3.2c-2.7,2.8-2.6,7.3,0.2,10
			c2.7,2.6,7,2.6,9.8,0c2.7-2.5,5.2-5.2,7.9-7.8c0.3-0.3,0.6-0.5,0.9-0.8c1.7,5.8-0.6,11.9-5.6,15.2C77.3,96.6,68.4,95,64,88.5
			s-2.8-15.4,3.6-19.8C71.1,66.3,75.4,65.5,79.4,66.6z"/>
	</g>
</g>
</svg>
