<svg xmlns="http://www.w3.org/2000/svg" width="30.34" height="30.34" viewBox="0 0 30.34 30.34"><defs><style>.a{fill:#c5c5c5;}</style></defs><ellipse class="a" cx="6.333" cy="6.333" rx="6.333" ry="6.333" transform="translate(8.824 8.836)"/><path class="a" d="M25.283,0H5.057A5.057,5.057,0,0,0,0,5.057V25.283A5.057,5.057,0,0,0,5.057,30.34H25.283a5.057,5.057,0,0,0,5.057-5.057V5.057A5.057,5.057,0,0,0,25.283,0ZM15.17,24.019a8.849,8.849,0,1,1,8.849-8.849,8.849,8.849,0,0,1-8.849,8.849Zm10.113-17.7a1.264,1.264,0,1,1,1.264-1.264A1.264,1.264,0,0,1,25.283,6.321Z"/></svg>