<svg xmlns="http://www.w3.org/2000/svg" width="52.566" height="43.748" viewBox="0 0 52.566 43.748"><defs><style>.a{fill:#f15b5b;fill-rule:evenodd;}</style></defs><path class="a" d="M26.251,26.062C21.979,26.062-.031,8.324-.031,8.324V6.375A4.377,4.377,0,0,1,4.348,2H48.153a4.378,4.378,0,0,1,4.381,4.375L52.5,8.562S30.728,26.062,26.251,26.062Zm0,6.015c4.683,0,26.249-16.952,26.249-16.952l.035,26.249a4.378,4.378,0,0,1-4.381,4.375H4.348A4.379,4.379,0,0,1-.031,41.373L0,15.124S21.979,32.077,26.251,32.077Z" transform="translate(0.031 -2)"/></svg>