<svg xmlns="http://www.w3.org/2000/svg" width="15.003" height="29" viewBox="0 0 15.003 29"><defs><style>.a{fill:#292663;}</style></defs><g transform="translate(-7.5 -4.002)"><path class="a" d="M19.193,24.3a7.17,7.17,0,0,1-1.917.343,1.334,1.334,0,0,1-.749-.146c-.31-.216-.885-.62.1-2.582l1.845-3.678a6.711,6.711,0,0,0,.452-5.949,4.883,4.883,0,0,0-3.542-2.612A8.81,8.81,0,0,0,13.615,9.5a9.379,9.379,0,0,0-5.8,2.077.922.922,0,0,0,.909,1.564,7.119,7.119,0,0,1,1.917-.345,1.329,1.329,0,0,1,.742.144c.312.218.889.627-.094,2.586l-1.845,3.68a6.705,6.705,0,0,0-.452,5.949,4.879,4.879,0,0,0,3.543,2.612,8.985,8.985,0,0,0,1.76.179A9.389,9.389,0,0,0,20.1,25.869a.923.923,0,0,0-.906-1.566Z" transform="translate(0 5.056)"/><circle class="a" cx="4.5" cy="4.5" r="4.5" transform="translate(13.503 4.002)"/></g></svg>