<svg xmlns="http://www.w3.org/2000/svg" width="29.355" height="37.152" viewBox="0 0 29.355 37.152"><defs><style>.a{fill:#292663;}</style></defs><g transform="translate(-69.1 -6.943)"><g transform="translate(72.004 6.943)"><path class="a" d="M106.832,18.453c.049.51.081,1.011.129,1.594.113-.129.17-.186.227-.259.437-.607.882-1.214,1.3-1.829a.693.693,0,0,1,.874-.307,20.555,20.555,0,0,0,5.9.93,40.742,40.742,0,0,0,8.35-.744,1.072,1.072,0,0,1,1.238.469c.477.7,1.028,1.351,1.61,2.1.024-.356.049-.607.057-.858a17.929,17.929,0,0,0-.574-6.255,6.85,6.85,0,0,0-4.531-4.919,7.159,7.159,0,0,0-3.876-.251,24.079,24.079,0,0,1-5.591.623c-1.95-.024-3.892-.162-5.421-1.57-.34-.316-.68-.4-.809.243-.057.3-.186.672-.243.971a23.205,23.205,0,0,0-.485,4.369,8.921,8.921,0,0,0,1.74,5.275A1,1,0,0,1,106.832,18.453Z" transform="translate(-104.986 -6.943)"/><path class="a" d="M147.591,154.488c-1.837.227-3.673.494-5.518.639a23.774,23.774,0,0,1-8.439-.752.371.371,0,0,0-.485.17c-.477.7-.947,1.392-1.473,2.047a2.163,2.163,0,0,0-.485,1.651,12.065,12.065,0,0,0,3.754,8.221,8.36,8.36,0,0,0,4.321,2.209,8.186,8.186,0,0,0,3.075-.024c.146-.032.283-.065.429-.105a9.833,9.833,0,0,0,6.044-5.081,13.8,13.8,0,0,0,1.5-5.632.85.85,0,0,0-.146-.534c-.655-.874-1.335-1.723-1.982-2.605A.559.559,0,0,0,147.591,154.488Z" transform="translate(-129.061 -142.42)"/></g><path class="a" d="M97.088,326.562c-.655-3.1-2.468-5.6-5.632-5.656a4.231,4.231,0,0,0-2.557.72,9.5,9.5,0,0,1-5,1.586h0a9.485,9.485,0,0,1-5.243-1.6,4.255,4.255,0,0,0-2.557-.72c-3.172.057-4.984,2.557-5.632,5.656-.429,2.023-.728,3.148-1.367,6.093H98.455C97.824,329.7,97.516,328.585,97.088,326.562Zm-5.389,3.2-1.359-.72-1.359.72.259-1.521-1.1-1.076,1.521-.218.68-1.384.68,1.384,1.521.218-1.1,1.076Z" transform="translate(0 -288.544)"/></g></svg>