<svg xmlns="http://www.w3.org/2000/svg" width="31.67" height="22.171" viewBox="0 0 31.67 22.171"><defs><style>.a{fill:#c9c9c9;}</style></defs><g transform="translate(-4.201 -15.126)"><g transform="translate(8.607 26.939)"><path class="a" d="M72.879,202.312a2.611,2.611,0,0,1,3.5-3.517,4.324,4.324,0,0,0-3.5,3.517Z" transform="translate(-72.616 -198.527)"/><path class="a" d="M335.27,202.285a2.621,2.621,0,0,1,3.51-3.5A4.427,4.427,0,0,0,335.27,202.285Z" transform="translate(-318.119 -198.544)"/></g><path class="a" d="M34.389,25.159c-.985-1.552-1.984-3.092-2.982-4.637a4.9,4.9,0,0,0-3.285-2.177.793.793,0,0,1-.438-.277c-.541-.708-1.043-1.443-1.584-2.151a1.766,1.766,0,0,0-1.4-.766,5.8,5.8,0,0,0-2.531.509,1.617,1.617,0,0,0-.927,1.243c-.045.245-.071.5-.109.773a1.8,1.8,0,0,0-2.209.013c-.013-.161-.019-.264-.026-.374a1.861,1.861,0,0,0-1.5-1.855c-.412-.122-.837-.18-1.256-.271a2.175,2.175,0,0,0-2.4.985c-.419.593-.857,1.172-1.262,1.778a.943.943,0,0,1-.651.425,4.712,4.712,0,0,0-3.053,1.971Q7.16,22.783,5.611,25.256a8.421,8.421,0,0,0-1.34,5.655A7.394,7.394,0,0,0,18.306,33c.032-.071.064-.135.1-.206a3.957,3.957,0,0,0,1.559.3,4.435,4.435,0,0,0,1.694-.328c.032.071.071.142.1.219A7.395,7.395,0,0,0,35.87,30.009,8.688,8.688,0,0,0,34.389,25.159ZM11.633,34.885a4.973,4.973,0,1,1,4.914-4.959A4.991,4.991,0,0,1,11.633,34.885ZM28.5,34.879a4.969,4.969,0,1,1,4.966-5.017A4.979,4.979,0,0,1,28.5,34.879Z" transform="translate(0)"/></g></svg>