<svg xmlns="http://www.w3.org/2000/svg" width="250.517" height="81.288" viewBox="0 0 250.517 81.288"><defs><style>.a{fill:#d72f3c;}</style></defs><path class="a" d="M255.37,31.51a34.726,34.726,0,0,0-7.837-12.051,32.253,32.253,0,0,0-11.681-7.319A41.269,41.269,0,0,0,221.621,9.7a39.91,39.91,0,0,0-13.936,2.44A32.889,32.889,0,0,0,196,19.459c-.407.407-.813.813-1.183,1.22V11.437H178.26v5.175a.649.649,0,0,1-.185-.148q-8.816-5.878-25.358-5.878c-3.031,0-6.506.148-10.313.407a89.9,89.9,0,0,0-11.2,1.479V19.94l-.481-.481a32.253,32.253,0,0,0-11.681-7.319A41.269,41.269,0,0,0,104.809,9.7a39.91,39.91,0,0,0-13.936,2.44A33.077,33.077,0,0,0,74.645,24.93a31.9,31.9,0,0,0-4.436-5.471A32.253,32.253,0,0,0,58.528,12.14,41.269,41.269,0,0,0,44.3,9.7,39.91,39.91,0,0,0,30.36,12.14a32.889,32.889,0,0,0-11.681,7.319A35.657,35.657,0,0,0,10.657,31.51,42.776,42.776,0,0,0,7.7,48.107a44.985,44.985,0,0,0,2.846,16.6,34.068,34.068,0,0,0,7.837,11.977,32.67,32.67,0,0,0,11.681,7.282A41.269,41.269,0,0,0,44.3,86.4c.887,0,1.774-.037,2.625-.074v4.658H63.481V81.857a30.442,30.442,0,0,0,6.913-5.175,33.87,33.87,0,0,0,4.214-5.175A30.691,30.691,0,0,0,78.9,76.682a32.67,32.67,0,0,0,11.681,7.282,41.269,41.269,0,0,0,14.232,2.44c.887,0,1.774-.037,2.625-.074v4.658h16.561V81.857a30.442,30.442,0,0,0,6.913-5.175,2.23,2.23,0,0,1,.3-.3v8.539h16.561V58.088h8.169c1.4,1.7,2.846,3.623,4.251,5.693,1.442,2.07,2.883,4.288,4.325,6.617s2.883,4.732,4.251,7.208q2.107,3.715,4.1,7.319h5.4v.037h16.561v-9.2c.3.3.591.628.887.924a32.67,32.67,0,0,0,11.681,7.282,41.269,41.269,0,0,0,14.232,2.44c.887,0,1.774-.037,2.625-.074v4.658h16.561V81.857a30.442,30.442,0,0,0,6.913-5.175,34.278,34.278,0,0,0,7.689-11.977,45,45,0,0,0,2.809-16.6A45.123,45.123,0,0,0,255.37,31.51ZM62.483,57.9a22.247,22.247,0,0,1-3.807,7.467,8.127,8.127,0,0,1-.739.85H46.921v5.545a19.867,19.867,0,0,1-2.588.148,19.053,19.053,0,0,1-8.28-1.7,16.9,16.9,0,0,1-6.1-4.843A22.247,22.247,0,0,1,26.146,57.9a33.144,33.144,0,0,1-1.331-9.759,33.6,33.6,0,0,1,1.331-9.722,22.626,22.626,0,0,1,3.807-7.541A17.83,17.83,0,0,1,36.053,26a18.544,18.544,0,0,1,8.28-1.737,19.064,19.064,0,0,1,8.206,1.7,16.719,16.719,0,0,1,6.136,4.843,21.939,21.939,0,0,1,3.807,7.541,33.757,33.757,0,0,1,1.331,9.8A33.5,33.5,0,0,1,62.483,57.9ZM123,57.9a22.247,22.247,0,0,1-3.807,7.467,8.123,8.123,0,0,1-.739.85H107.434v5.545a19.867,19.867,0,0,1-2.588.148,19.053,19.053,0,0,1-8.28-1.7,16.9,16.9,0,0,1-6.1-4.843A22.247,22.247,0,0,1,86.659,57.9a33.144,33.144,0,0,1-1.331-9.759,33.6,33.6,0,0,1,1.331-9.722,22.626,22.626,0,0,1,3.807-7.541A17.83,17.83,0,0,1,96.566,26a18.544,18.544,0,0,1,8.28-1.737,19.064,19.064,0,0,1,8.206,1.7,16.719,16.719,0,0,1,6.136,4.843A21.94,21.94,0,0,1,123,38.348a33.756,33.756,0,0,1,1.331,9.8A33.5,33.5,0,0,1,123,57.9Zm42.769-15.3c-2.7,1.553-7.171,2.329-13.382,2.329h-4.658V25c.85-.074,1.737-.148,2.7-.222s2.033-.111,3.253-.111c5.286,0,9.315.776,12.051,2.292,2.7,1.516,4.066,4.066,4.066,7.689C169.795,38.385,168.464,41.047,165.766,42.6ZM177.742,61.23q-2.44-3.549-4.658-6.321a25.445,25.445,0,0,0,5.175-2.772V61.97A5.283,5.283,0,0,0,177.742,61.23ZM239.808,57.9A22.248,22.248,0,0,1,236,65.37a8.128,8.128,0,0,1-.739.85H224.245v5.545a19.866,19.866,0,0,1-2.588.148,19.053,19.053,0,0,1-8.28-1.7,16.9,16.9,0,0,1-6.1-4.843,22.246,22.246,0,0,1-3.807-7.467,33.145,33.145,0,0,1-1.331-9.759,33.6,33.6,0,0,1,1.331-9.722,22.626,22.626,0,0,1,3.807-7.541,17.83,17.83,0,0,1,6.1-4.879,18.544,18.544,0,0,1,8.28-1.737,19.064,19.064,0,0,1,8.206,1.7A16.72,16.72,0,0,1,236,30.807a21.94,21.94,0,0,1,3.807,7.541,33.756,33.756,0,0,1,1.331,9.8A33.5,33.5,0,0,1,239.808,57.9Z" transform="translate(-7.7 -9.7)"/></svg>