<svg xmlns="http://www.w3.org/2000/svg" width="44.171" height="40.935" viewBox="0 0 44.171 40.935"><defs><style>.a{fill:#f15b5b;}</style></defs><path class="a" d="M41.639,36.58v2.285a4.57,4.57,0,0,1-4.569,4.569H5.369A4.57,4.57,0,0,1,.8,38.865V7.069A4.57,4.57,0,0,1,5.369,2.5h31.8a4.57,4.57,0,0,1,4.569,4.569V9.354H21.267A4.57,4.57,0,0,0,16.7,13.924V32.106a4.57,4.57,0,0,0,4.569,4.569H41.639ZM23.266,34.01H41.83a3.169,3.169,0,0,0,3.141-3.141v-15.8a3.169,3.169,0,0,0-3.141-3.141H23.266a3.717,3.717,0,0,0-3.713,3.713V30.393A3.762,3.762,0,0,0,23.266,34.01Zm7.045-6.759a4.284,4.284,0,1,1,4.284-4.284A4.266,4.266,0,0,1,30.311,27.251Z" transform="translate(-0.8 -2.5)"/></svg>