<svg xmlns="http://www.w3.org/2000/svg" width="132.375" height="69.175" viewBox="0 0 132.375 69.175"><defs><style>.a{fill:#6166af;}.b{fill:#292663;}.c{fill:#f15b5b;}.d{fill:none;stroke:#886197;stroke-linecap:round;stroke-linejoin:round;stroke-miterlimit:10;stroke-width:10px;}</style></defs><g transform="translate(-2.4 -4.3)"><path class="a" d="M328.29,37.484a1.376,1.376,0,0,1-1.39-1.39V18.224A13.949,13.949,0,0,1,340.824,4.3a1.39,1.39,0,0,1,0,2.779,11.161,11.161,0,0,0-11.145,11.145V36.067A1.4,1.4,0,0,1,328.29,37.484Z" transform="translate(-234.314 0)"/><path class="a" d="M337.322,111.648A10.445,10.445,0,0,1,326.9,101.309v-.083a1.39,1.39,0,0,1,2.779,0,7.643,7.643,0,1,0,15.286,0l.111-5.364a1.407,1.407,0,0,1,1.39-1.362h.028a1.376,1.376,0,0,1,1.362,1.417l-.111,5.336A10.42,10.42,0,0,1,337.322,111.648Z" transform="translate(-234.314 -65.131)"/><g transform="translate(49.48 51.213)"><path class="b" d="M171.8,176.479v-2.668a.6.6,0,0,1,.611-.611.617.617,0,0,1,.611.611v2.64c0,.917.472,1.39,1.223,1.39s1.223-.472,1.223-1.362v-2.668a.6.6,0,0,1,.611-.611.617.617,0,0,1,.611.611v2.612a2.278,2.278,0,0,1-2.474,2.557A2.209,2.209,0,0,1,171.8,176.479Z" transform="translate(-171.8 -173.172)"/><path class="b" d="M194.1,173.911a.6.6,0,0,1,.611-.611h.139a.735.735,0,0,1,.639.361l2.39,3.168v-2.918a.611.611,0,0,1,1.223,0v4.5a.6.6,0,0,1-.611.611h-.028a.735.735,0,0,1-.639-.361l-2.5-3.279v3.029a.611.611,0,1,1-1.223,0Z" transform="translate(-187.902 -173.244)"/><path class="b" d="M217.3,173.911a.611.611,0,0,1,1.223,0v4.5a.611.611,0,0,1-1.223,0Z" transform="translate(-204.654 -173.244)"/><path class="b" d="M225.522,178.508a.556.556,0,0,1-.222-.472.593.593,0,0,1,.584-.611.427.427,0,0,1,.361.139,1.146,1.146,0,0,0,.75.278c.472,0,.778-.278.778-.945v-3.085a.6.6,0,0,1,.611-.611.617.617,0,0,1,.611.611v3.141a2.047,2.047,0,0,1-.528,1.5,2,2,0,0,1-1.473.528A2.229,2.229,0,0,1,225.522,178.508Z" transform="translate(-210.431 -173.172)"/><path class="b" d="M241.611,178.047l1.973-4.447a.779.779,0,0,1,.723-.5h.083a.779.779,0,0,1,.723.5l1.973,4.447a.811.811,0,0,1,.056.25.593.593,0,0,1-.584.611.694.694,0,0,1-.611-.417l-.389-.889h-2.5l-.389.917a.6.6,0,0,1-.584.389.57.57,0,0,1-.584-.584A.832.832,0,0,1,241.611,178.047Zm3.5-1.556-.778-1.862-.778,1.862Z" transform="translate(-222.129 -173.1)"/><path class="b" d="M273.956,173.911a.6.6,0,0,1,.611-.611h.139a.6.6,0,0,1,.556.333l1.5,2.446,1.5-2.474a.587.587,0,0,1,.556-.306h.139a.6.6,0,0,1,.611.611v4.5a.6.6,0,0,1-.611.611.617.617,0,0,1-.611-.611v-2.835l-1.084,1.7a.609.609,0,0,1-1.056,0l-1.084-1.668v2.807a.611.611,0,1,1-1.223,0v-4.5Z" transform="translate(-245.524 -173.244)"/><path class="b" d="M299.3,173.911a.6.6,0,0,1,.611-.611.617.617,0,0,1,.611.611v3.947h2.307a.556.556,0,0,1,0,1.112h-2.918a.6.6,0,0,1-.611-.611Z" transform="translate(-263.865 -173.244)"/><path class="b" d="M315.911,178.047l1.973-4.447a.779.779,0,0,1,.723-.5h.083a.779.779,0,0,1,.723.5l1.973,4.447a.809.809,0,0,1,.056.25.593.593,0,0,1-.584.611.694.694,0,0,1-.611-.417l-.389-.889h-2.5l-.389.917a.6.6,0,0,1-.584.389.57.57,0,0,1-.584-.584A1.916,1.916,0,0,0,315.911,178.047Zm3.5-1.556-.778-1.862-.778,1.862Z" transform="translate(-275.779 -173.1)"/><path class="b" d="M339.7,174.011a.6.6,0,0,1,.611-.611H341.9a2.816,2.816,0,0,1,3,2.807v.028a2.837,2.837,0,0,1-3,2.835h-1.584a.6.6,0,0,1-.611-.612Zm2.2,3.919a1.6,1.6,0,0,0,1.7-1.7v-.028a1.619,1.619,0,0,0-1.7-1.7h-.973v3.419Z" transform="translate(-293.037 -173.317)"/><path class="b" d="M362.6,173.911a.611.611,0,0,1,1.223,0v4.5a.611.611,0,1,1-1.223,0Z" transform="translate(-309.572 -173.244)"/><path class="b" d="M372.2,173.911a.6.6,0,0,1,.611-.611.617.617,0,0,1,.611.611v1.668h2.307v-1.668a.6.6,0,0,1,.611-.611.617.617,0,0,1,.612.611v4.5a.6.6,0,0,1-.612.611.617.617,0,0,1-.611-.611v-1.7h-2.307v1.7a.6.6,0,0,1-.611.611.617.617,0,0,1-.611-.611Z" transform="translate(-316.504 -173.244)"/><path class="b" d="M172.1,203.411a.6.6,0,0,1,.611-.611h1.7a1.934,1.934,0,0,1,2.168,1.945v.028a2.035,2.035,0,0,1-2.279,2h-.945v1.112a.6.6,0,0,1-.611.611.617.617,0,0,1-.611-.611v-4.475Zm2.223,2.251a.89.89,0,0,0,1-.862v-.028c0-.556-.389-.862-1-.862h-.973v1.723h.973Z" transform="translate(-172.017 -194.546)"/><path class="b" d="M191.5,203.411a.6.6,0,0,1,.611-.611h1.973a2.146,2.146,0,0,1,1.64.584,1.788,1.788,0,0,1,.472,1.306v.028a1.721,1.721,0,0,1-1.139,1.723l.862,1.056a.789.789,0,0,1,.195.472.57.57,0,0,1-.584.584.725.725,0,0,1-.611-.334l-1.223-1.529h-.945v1.251a.6.6,0,0,1-.611.611.617.617,0,0,1-.611-.611v-4.53Zm2.529,2.14c.611,0,.945-.333.945-.806v-.028c0-.528-.361-.806-.973-.806h-1.251v1.64Z" transform="translate(-186.025 -194.546)"/><path class="b" d="M212.6,207.83v-4.419a.6.6,0,0,1,.611-.611h3.141a.556.556,0,1,1,0,1.112h-2.529v1.14h2.168a.556.556,0,0,1,0,1.112h-2.168v1.2h2.557a.556.556,0,0,1,0,1.112h-3.168A.623.623,0,0,1,212.6,207.83Z" transform="translate(-201.261 -194.546)"/><path class="b" d="M232.1,203.411a.6.6,0,0,1,.611-.611H234.3a2.816,2.816,0,0,1,3,2.807v.028a2.837,2.837,0,0,1-3,2.835h-1.584a.6.6,0,0,1-.611-.611Zm2.223,3.919a1.6,1.6,0,0,0,1.7-1.7h0a1.619,1.619,0,0,0-1.7-1.7h-.973v3.418h.973Z" transform="translate(-215.341 -194.546)"/><path class="b" d="M254.6,205.879v-2.668a.611.611,0,1,1,1.223,0v2.64c0,.917.472,1.39,1.223,1.39s1.223-.472,1.223-1.362v-2.668a.6.6,0,0,1,.611-.611.617.617,0,0,1,.611.611v2.612a2.278,2.278,0,0,1-2.474,2.557A2.209,2.209,0,0,1,254.6,205.879Z" transform="translate(-231.588 -194.401)"/><path class="b" d="M275.8,207.842h0a.916.916,0,0,1,.222-.611l2.946-3.418h-2.529a.556.556,0,1,1,0-1.112h3.613a.557.557,0,0,1,.556.556v.028a.9.9,0,0,1-.222.584l-2.946,3.418h2.612a.556.556,0,1,1,0,1.112h-3.724A.552.552,0,0,1,275.8,207.842Z" transform="translate(-246.896 -194.473)"/><path class="b" d="M297.2,207.83v-4.419a.6.6,0,0,1,.611-.611h3.141a.556.556,0,0,1,0,1.112h-2.529v1.14h2.168a.556.556,0,0,1,0,1.112h-2.168v1.2h2.557a.556.556,0,0,1,0,1.112h-3.168A.623.623,0,0,1,297.2,207.83Z" transform="translate(-262.348 -194.546)"/><path class="b" d="M316.879,203.867h-1.2a.584.584,0,0,1,0-1.167h3.641a.584.584,0,1,1,0,1.167h-1.2v3.946a.6.6,0,0,1-.611.611.617.617,0,0,1-.612-.611v-3.946Z" transform="translate(-275.274 -194.473)"/><path class="b" d="M335.6,203.311a.6.6,0,0,1,.612-.611h.139a.735.735,0,0,1,.639.361l2.39,3.168v-2.918a.611.611,0,0,1,1.223,0v4.5a.6.6,0,0,1-.611.611h-.028a.735.735,0,0,1-.639-.361l-2.5-3.279v3.029a.611.611,0,0,1-1.223,0Z" transform="translate(-290.076 -194.473)"/><path class="b" d="M358.8,203.311a.611.611,0,0,1,1.223,0v4.5a.611.611,0,0,1-1.223,0Z" transform="translate(-306.828 -194.473)"/><path class="b" d="M368.4,203.239a.6.6,0,0,1,.611-.611.617.617,0,0,1,.612.611v1.89l2.307-2.279a.684.684,0,0,1,.528-.25.569.569,0,0,1,.584.584.636.636,0,0,1-.222.472l-1.584,1.5,1.751,2.2a.717.717,0,0,1,.167.445.606.606,0,0,1-.639.611.6.6,0,0,1-.528-.306l-1.612-2.112-.723.667v1.14a.6.6,0,0,1-.611.611.617.617,0,0,1-.611-.611v-4.558Z" transform="translate(-313.76 -194.401)"/><path class="b" d="M387.511,207.447,389.484,203a.779.779,0,0,1,.723-.5h.083a.779.779,0,0,1,.723.5l1.973,4.447a.811.811,0,0,1,.056.25.593.593,0,0,1-.584.611.694.694,0,0,1-.611-.417l-.389-.889h-2.5l-.389.917a.6.6,0,0,1-.584.389.57.57,0,0,1-.584-.584A1.915,1.915,0,0,0,387.511,207.447Zm3.5-1.584L390.235,204l-.778,1.862Z" transform="translate(-327.48 -194.329)"/></g><g transform="translate(49.425 67.555)"><path class="c" d="M171.6,234.846h0a2.86,2.86,0,0,1,2.863-2.946,3.036,3.036,0,0,1,2.029.723.374.374,0,0,1,.139.25.334.334,0,0,1-.334.306.316.316,0,0,1-.222-.083,2.309,2.309,0,0,0-1.64-.639,2.234,2.234,0,0,0-2.2,2.335v.028a2.234,2.234,0,0,0,2.2,2.335,2.4,2.4,0,0,0,1.7-.695.252.252,0,0,1,.195-.083.308.308,0,0,1,.306.306.343.343,0,0,1-.111.222,2.931,2.931,0,0,1-2.112.834A2.785,2.785,0,0,1,171.6,234.846Z" transform="translate(-171.6 -231.9)"/><path class="c" d="M194,232.533a.334.334,0,0,1,.306-.334h2.112a2.348,2.348,0,0,1,1.612.556,1.552,1.552,0,0,1,.445,1.112v.028a1.656,1.656,0,0,1-1.5,1.64l1.417,1.806c.056.083.111.139.111.222a.334.334,0,0,1-.333.306.424.424,0,0,1-.306-.167l-1.584-2.084h-1.64v1.918a.338.338,0,0,1-.334.334.315.315,0,0,1-.306-.334Zm2.39,2.585c.862,0,1.445-.445,1.445-1.167v-.028c0-.695-.528-1.112-1.445-1.112h-1.751v2.307Z" transform="translate(-187.775 -232.117)"/><path class="c" d="M215.1,232.506a.308.308,0,0,1,.306-.306h.083c.139,0,.222.083.334.195l3.446,4.391v-4.28a.306.306,0,1,1,.611,0v5.114a.286.286,0,0,1-.278.306h-.028c-.139,0-.222-.083-.333-.195l-3.5-4.5v4.391a.306.306,0,1,1-.611,0v-5.114Z" transform="translate(-203.01 -232.117)"/><path class="c" d="M238.1,237.564v-5.03a.334.334,0,0,1,.306-.334h3.53a.278.278,0,0,1,0,.556h-3.2V234.7h2.835a.278.278,0,0,1,0,.556h-2.835v1.973h3.224a.278.278,0,1,1,0,.556h-3.557C238.239,237.87,238.1,237.731,238.1,237.564Z" transform="translate(-219.618 -232.117)"/><path class="c" d="M265.4,234.846h0a2.853,2.853,0,0,1,2.835-2.946,3.015,3.015,0,0,1,1.945.611.292.292,0,0,1,.139.25.334.334,0,0,1-.306.333.252.252,0,0,1-.195-.083,2.435,2.435,0,0,0-1.556-.528,2.206,2.206,0,0,0-2.14,2.335v.028a2.189,2.189,0,0,0,2.251,2.362,2.762,2.762,0,0,0,1.64-.556v-1.417h-1.529a.278.278,0,0,1,0-.556h1.834a.315.315,0,0,1,.306.334v1.723a.479.479,0,0,1-.222.389,3.445,3.445,0,0,1-2.057.695A2.883,2.883,0,0,1,265.4,234.846Z" transform="translate(-239.331 -231.9)"/><path class="c" d="M288.2,234.846h0a2.891,2.891,0,1,1,5.781-.028v.028a2.89,2.89,0,1,1-5.781,0Zm5.114,0h0a2.263,2.263,0,0,0-2.223-2.362,2.239,2.239,0,0,0-2.223,2.335v.028a2.226,2.226,0,1,0,4.447,0Z" transform="translate(-255.794 -231.9)"/><path class="c" d="M313.9,232.533a.334.334,0,0,1,.306-.334h2.112a2.348,2.348,0,0,1,1.612.556,1.552,1.552,0,0,1,.445,1.112v.028a1.656,1.656,0,0,1-1.5,1.64l1.417,1.806c.056.083.111.139.111.222a.334.334,0,0,1-.334.306.424.424,0,0,1-.306-.167l-1.584-2.084h-1.64v1.918a.338.338,0,0,1-.334.334.315.315,0,0,1-.306-.334Zm2.39,2.585c.862,0,1.445-.445,1.445-1.167v-.028c0-.695-.528-1.112-1.445-1.112h-1.751v2.307Z" transform="translate(-274.352 -232.117)"/><path class="c" d="M334.9,237.564v-5.03a.334.334,0,0,1,.306-.334h3.53a.278.278,0,0,1,0,.556h-3.2V234.7h2.835a.278.278,0,1,1,0,.556h-2.835v1.973h3.224a.278.278,0,1,1,0,.556h-3.557C335.067,237.87,334.9,237.731,334.9,237.564Z" transform="translate(-289.515 -232.117)"/></g><path class="d" d="M331.9,118.7" transform="translate(-237.924 -82.606)"/><path class="c" d="M328.29,37.54a1.376,1.376,0,0,1-1.39-1.39v-.083a6.792,6.792,0,0,1,6.781-6.7h21.483a11.145,11.145,0,0,0,0-22.289H340.824a1.39,1.39,0,0,1,0-2.779h14.341a13.924,13.924,0,0,1,0,27.848H333.681a4.021,4.021,0,0,0-4,4A1.376,1.376,0,0,1,328.29,37.54Z" transform="translate(-234.314 0)"/><path class="d" d="M397.2,99.5" transform="translate(-285.076 -68.742)"/><path class="b" d="M180.469,42.709a8.874,8.874,0,0,1-7.031-3.474,6.675,6.675,0,0,1-2.084.334,6.761,6.761,0,0,1-6.754-6.754V9.191a4.891,4.891,0,0,1,9.783,0V33.843a6.073,6.073,0,0,0,.75,2.918,307222133479.641,307222133479.641,0,0,0,.056.056,6.072,6.072,0,0,0,9.283,1.584,1.4,1.4,0,0,1,1.834,2.112A8.853,8.853,0,0,1,180.469,42.709Zm-10.95-35.63a2.111,2.111,0,0,0-2.112,2.112V32.815a3.973,3.973,0,0,0,3.974,3.974,6.816,6.816,0,0,0,.75-.056,8.833,8.833,0,0,1-.472-2.863V9.191A2.153,2.153,0,0,0,169.519,7.079Z" transform="translate(-117.121)"/><path class="a" d="M23.522,46.517A21.148,21.148,0,0,1,2.4,25.394V9.191a4.891,4.891,0,1,1,9.783,0V25.7a5.8,5.8,0,0,0,2.835,4.975A1.4,1.4,0,0,1,13.6,33.093a8.609,8.609,0,0,1-4.2-7.365V9.191a2.112,2.112,0,1,0-4.224,0v16.2a18.343,18.343,0,1,0,36.686,0V18.28a1.39,1.39,0,0,1,2.779,0v7.143A21.16,21.16,0,0,1,23.522,46.517Z" transform="translate(0 0)"/><path class="b" d="M10.96,34.288a8.564,8.564,0,0,1-8.56-8.56,1.39,1.39,0,1,1,2.779,0,5.776,5.776,0,0,0,5.781,5.781,5.619,5.619,0,0,0,2.835-.75,5.806,5.806,0,0,0,2.946-5.03l-.056-7.448a13.98,13.98,0,0,1,27.959,0v7.143a1.39,1.39,0,0,1-2.779,0V18.28a11.2,11.2,0,0,0-22.4,0l.056,7.448A8.608,8.608,0,0,1,15.157,33.2,8.816,8.816,0,0,1,10.96,34.288Z" transform="translate(0 0)"/><path class="c" d="M204.486,46.517a12.039,12.039,0,0,1-12.034-12.034l-.167-25.291a2.111,2.111,0,0,0-2.112-2.112H179.39a1.39,1.39,0,1,1,0-2.779h29.738a7.437,7.437,0,0,1,7.421,7.421V34.482A12.1,12.1,0,0,1,204.486,46.517ZM194.564,7.079a4.9,4.9,0,0,1,.472,2.112l.167,25.291a9.255,9.255,0,0,0,18.51,0V11.721a4.65,4.65,0,0,0-4.641-4.641Z" transform="translate(-126.797)"/><path class="b" d="M173.093,10.581a1.376,1.376,0,0,1-1.39-1.39,2.112,2.112,0,1,0-4.224,0,1.39,1.39,0,0,1-2.779,0,4.891,4.891,0,1,1,9.783,0A1.394,1.394,0,0,1,173.093,10.581Z" transform="translate(-117.193 0)"/></g></svg>