<svg xmlns="http://www.w3.org/2000/svg" width="182.782" height="95.516" viewBox="0 0 182.782 95.516"><defs><style>.a{fill:#fff;}.b{fill:none;}</style></defs><g transform="translate(-2.4 -4.3)"><path class="a" d="M328.819,50.12A1.9,1.9,0,0,1,326.9,48.2V23.526A19.26,19.26,0,0,1,346.126,4.3a1.919,1.919,0,0,1,0,3.838,15.411,15.411,0,0,0-15.388,15.388V48.163A1.933,1.933,0,0,1,328.819,50.12Z" transform="translate(-199.972 0)"/><path class="a" d="M341.291,118.178A14.422,14.422,0,0,1,326.9,103.9v-.115a1.919,1.919,0,0,1,3.838,0,10.553,10.553,0,1,0,21.106,0L352,96.38a1.942,1.942,0,0,1,1.919-1.88h.038a1.9,1.9,0,0,1,1.88,1.957l-.154,7.368A14.388,14.388,0,0,1,341.291,118.178Z" transform="translate(-199.972 -55.585)"/><g transform="translate(67.408 69.078)"><path class="a" d="M171.8,177.728v-3.684a.828.828,0,0,1,.844-.844.852.852,0,0,1,.844.844v3.646c0,1.266.652,1.919,1.689,1.919s1.688-.652,1.688-1.88v-3.684a.828.828,0,0,1,.844-.844.852.852,0,0,1,.844.844v3.607c0,2.379-1.343,3.531-3.415,3.531C173.066,181.22,171.8,180.031,171.8,177.728Z" transform="translate(-171.8 -173.162)"/><path class="a" d="M194.1,174.144a.828.828,0,0,1,.844-.844h.192a1.015,1.015,0,0,1,.883.5l3.3,4.375v-4.029a.844.844,0,0,1,1.689,0v6.217a.828.828,0,0,1-.844.844h-.038a1.015,1.015,0,0,1-.883-.5l-3.454-4.528v4.183a.844.844,0,1,1-1.689,0Z" transform="translate(-185.542 -173.223)"/><path class="a" d="M217.3,174.144a.844.844,0,0,1,1.689,0v6.217a.844.844,0,1,1-1.689,0Z" transform="translate(-199.839 -173.223)"/><path class="a" d="M225.607,180.53a.768.768,0,0,1-.307-.652.819.819,0,0,1,.806-.844.589.589,0,0,1,.5.192,1.582,1.582,0,0,0,1.036.384c.652,0,1.075-.384,1.075-1.3v-4.26a.827.827,0,0,1,.844-.844.852.852,0,0,1,.844.844v4.336a2.827,2.827,0,0,1-.729,2.072,2.758,2.758,0,0,1-2.034.729A3.078,3.078,0,0,1,225.607,180.53Z" transform="translate(-204.769 -173.162)"/><path class="a" d="M241.654,179.931l2.725-6.14a1.075,1.075,0,0,1,1-.691h.115a1.075,1.075,0,0,1,1,.691l2.725,6.14a1.119,1.119,0,0,1,.077.345.819.819,0,0,1-.806.844.958.958,0,0,1-.844-.576l-.537-1.228h-3.454l-.537,1.266a.831.831,0,0,1-.806.537.787.787,0,0,1-.806-.806A1.148,1.148,0,0,1,241.654,179.931Zm4.835-2.149-1.074-2.571-1.075,2.571Z" transform="translate(-214.752 -173.1)"/><path class="a" d="M273.977,174.144a.827.827,0,0,1,.844-.844h.192a.83.83,0,0,1,.768.46l2.072,3.377,2.072-3.415a.81.81,0,0,1,.768-.422h.192a.828.828,0,0,1,.844.844v6.217a.828.828,0,0,1-.844.844.852.852,0,0,1-.844-.844v-3.914l-1.5,2.341a.841.841,0,0,1-1.458,0l-1.5-2.3v3.876a.844.844,0,1,1-1.688,0v-6.217Z" transform="translate(-234.719 -173.223)"/><path class="a" d="M299.3,174.144a.827.827,0,0,1,.844-.844.852.852,0,0,1,.844.844v5.449h3.185a.768.768,0,0,1,0,1.535h-4.03a.827.827,0,0,1-.844-.844Z" transform="translate(-250.371 -173.223)"/><path class="a" d="M315.954,179.931l2.725-6.14a1.075,1.075,0,0,1,1-.691h.115a1.076,1.076,0,0,1,1,.691l2.725,6.14a1.118,1.118,0,0,1,.077.345.819.819,0,0,1-.806.844.958.958,0,0,1-.844-.576l-.537-1.228h-3.454l-.537,1.266a.831.831,0,0,1-.806.537.787.787,0,0,1-.806-.806A2.649,2.649,0,0,0,315.954,179.931Zm4.835-2.149-1.075-2.571-1.074,2.571Z" transform="translate(-260.54 -173.1)"/><path class="a" d="M339.7,174.244a.828.828,0,0,1,.844-.844h2.187a3.888,3.888,0,0,1,4.145,3.876v.038a3.917,3.917,0,0,1-4.145,3.914h-2.187a.828.828,0,0,1-.844-.844Zm3.032,5.411a2.216,2.216,0,0,0,2.341-2.341v-.038a2.236,2.236,0,0,0-2.341-2.341h-1.343v4.72Z" transform="translate(-275.268 -173.285)"/><path class="a" d="M362.6,174.144a.844.844,0,0,1,1.689,0v6.217a.844.844,0,1,1-1.689,0Z" transform="translate(-289.38 -173.223)"/><path class="a" d="M372.2,174.144a.827.827,0,0,1,.844-.844.852.852,0,0,1,.844.844v2.3h3.185v-2.3a.828.828,0,0,1,.844-.844.852.852,0,0,1,.844.844v6.217a.828.828,0,0,1-.844.844.852.852,0,0,1-.844-.844V178.02h-3.185v2.341a.828.828,0,0,1-.844.844.852.852,0,0,1-.844-.844Z" transform="translate(-295.296 -173.223)"/><path class="a" d="M172.1,203.644a.827.827,0,0,1,.844-.844h2.341a2.671,2.671,0,0,1,2.993,2.686v.038c0,1.8-1.42,2.763-3.147,2.763h-1.3v1.535a.827.827,0,0,1-.844.844.852.852,0,0,1-.844-.844v-6.178Zm3.07,3.108a1.229,1.229,0,0,0,1.382-1.19v-.038c0-.768-.537-1.19-1.382-1.19h-1.343v2.379h1.343Z" transform="translate(-171.985 -191.402)"/><path class="a" d="M191.5,203.644a.828.828,0,0,1,.844-.844h2.725a2.964,2.964,0,0,1,2.264.806,2.469,2.469,0,0,1,.652,1.8v.038a2.376,2.376,0,0,1-1.573,2.379l1.19,1.458a1.089,1.089,0,0,1,.269.652.786.786,0,0,1-.806.806,1,1,0,0,1-.844-.461l-1.689-2.111h-1.3V209.9a.827.827,0,0,1-.844.844.852.852,0,0,1-.844-.844v-6.255Zm3.492,2.955c.844,0,1.3-.46,1.3-1.113v-.038c0-.729-.5-1.113-1.343-1.113h-1.727V206.6Z" transform="translate(-183.94 -191.402)"/><path class="a" d="M212.6,209.746v-6.1a.828.828,0,0,1,.844-.844h4.336a.767.767,0,1,1,0,1.535h-3.492v1.573h2.993a.768.768,0,0,1,0,1.535h-2.993v1.65h3.531a.767.767,0,1,1,0,1.535h-4.375A.861.861,0,0,1,212.6,209.746Z" transform="translate(-196.943 -191.402)"/><path class="a" d="M232.1,203.644a.828.828,0,0,1,.844-.844h2.187a3.888,3.888,0,0,1,4.145,3.876v.038a3.917,3.917,0,0,1-4.145,3.914h-2.187a.828.828,0,0,1-.844-.844Zm3.07,5.411a2.216,2.216,0,0,0,2.341-2.341h0a2.236,2.236,0,0,0-2.341-2.341h-1.343v4.72h1.343Z" transform="translate(-208.96 -191.402)"/><path class="a" d="M254.6,207.128v-3.684a.844.844,0,0,1,1.689,0v3.646c0,1.266.652,1.919,1.689,1.919s1.689-.652,1.689-1.88v-3.684a.827.827,0,0,1,.844-.844.852.852,0,0,1,.844.844v3.607c0,2.379-1.343,3.531-3.415,3.531C255.866,210.62,254.6,209.431,254.6,207.128Z" transform="translate(-222.825 -191.279)"/><path class="a" d="M275.8,209.8h0a1.264,1.264,0,0,1,.307-.844l4.068-4.72h-3.492a.767.767,0,1,1,0-1.535h4.989a.77.77,0,0,1,.768.767v.038a1.238,1.238,0,0,1-.307.806l-4.068,4.72h3.607a.767.767,0,1,1,0,1.535h-5.142A.763.763,0,0,1,275.8,209.8Z" transform="translate(-235.89 -191.341)"/><path class="a" d="M297.2,209.746v-6.1a.828.828,0,0,1,.844-.844h4.336a.767.767,0,0,1,0,1.535h-3.492v1.573h2.993a.768.768,0,0,1,0,1.535h-2.993v1.65h3.531a.767.767,0,0,1,0,1.535h-4.375A.861.861,0,0,1,297.2,209.746Z" transform="translate(-249.077 -191.402)"/><path class="a" d="M317.556,204.312h-1.65a.806.806,0,0,1,0-1.612h5.027a.806.806,0,1,1,0,1.612h-1.65v5.449a.827.827,0,0,1-.844.844.852.852,0,0,1-.844-.844v-5.449Z" transform="translate(-260.108 -191.341)"/><path class="a" d="M335.6,203.544a.828.828,0,0,1,.844-.844h.192a1.015,1.015,0,0,1,.883.5l3.3,4.375v-4.029a.844.844,0,0,1,1.689,0v6.217a.828.828,0,0,1-.844.844h-.038a1.015,1.015,0,0,1-.883-.5l-3.454-4.528v4.183a.844.844,0,0,1-1.689,0Z" transform="translate(-272.741 -191.341)"/><path class="a" d="M358.8,203.544a.844.844,0,0,1,1.689,0v6.217a.844.844,0,0,1-1.689,0Z" transform="translate(-287.038 -191.341)"/><path class="a" d="M368.4,203.483a.827.827,0,0,1,.844-.844.852.852,0,0,1,.844.844v2.609l3.185-3.147A.945.945,0,0,1,374,202.6a.786.786,0,0,1,.806.806.878.878,0,0,1-.307.652l-2.187,2.072,2.417,3.032a.99.99,0,0,1,.23.614.837.837,0,0,1-.883.844.823.823,0,0,1-.729-.422l-2.226-2.916-1,.921v1.573a.828.828,0,0,1-.844.844.852.852,0,0,1-.844-.844v-6.294Z" transform="translate(-292.954 -191.279)"/><path class="a" d="M387.554,209.331l2.725-6.14a1.075,1.075,0,0,1,1-.691h.115a1.075,1.075,0,0,1,1,.691l2.725,6.14a1.118,1.118,0,0,1,.077.345.819.819,0,0,1-.806.844.958.958,0,0,1-.844-.576L393,208.717h-3.454l-.537,1.266a.831.831,0,0,1-.806.537.787.787,0,0,1-.806-.806A2.638,2.638,0,0,0,387.554,209.331Zm4.835-2.187-1.074-2.571-1.075,2.571Z" transform="translate(-304.663 -191.218)"/></g><g transform="translate(67.331 91.642)"><path class="a" d="M171.6,235.968h0a3.949,3.949,0,0,1,3.953-4.068,4.192,4.192,0,0,1,2.8,1,.517.517,0,0,1,.192.345.461.461,0,0,1-.46.422.436.436,0,0,1-.307-.115,3.189,3.189,0,0,0-2.264-.883,3.084,3.084,0,0,0-3.032,3.224v.038a3.084,3.084,0,0,0,3.032,3.224,3.31,3.31,0,0,0,2.341-.959.348.348,0,0,1,.269-.115.426.426,0,0,1,.422.422.474.474,0,0,1-.153.307,4.048,4.048,0,0,1-2.917,1.151A3.846,3.846,0,0,1,171.6,235.968Z" transform="translate(-171.6 -231.9)"/><path class="a" d="M194,232.66a.461.461,0,0,1,.422-.461h2.917a3.242,3.242,0,0,1,2.226.768,2.143,2.143,0,0,1,.614,1.535v.038a2.287,2.287,0,0,1-2.072,2.264l1.957,2.494c.077.115.153.192.153.307a.461.461,0,0,1-.46.422.585.585,0,0,1-.422-.23l-2.187-2.878h-2.264v2.648a.467.467,0,0,1-.461.461.436.436,0,0,1-.422-.461Zm3.3,3.569c1.19,0,2-.614,2-1.612v-.038c0-.959-.729-1.535-2-1.535h-2.418v3.185Z" transform="translate(-185.404 -232.085)"/><path class="a" d="M215.1,232.622a.426.426,0,0,1,.422-.422h.115c.192,0,.307.115.461.269l4.759,6.063v-5.91a.422.422,0,1,1,.844,0v7.061a.394.394,0,0,1-.384.422h-.038c-.192,0-.307-.115-.46-.269l-4.835-6.217v6.063a.422.422,0,1,1-.844,0v-7.061Z" transform="translate(-198.407 -232.085)"/><path class="a" d="M238.1,239.606V232.66a.461.461,0,0,1,.422-.461H243.4a.384.384,0,0,1,0,.768h-4.413v2.686H242.9a.384.384,0,0,1,0,.768h-3.914v2.725h4.451a.384.384,0,1,1,0,.767h-4.912C238.292,240.029,238.1,239.837,238.1,239.606Z" transform="translate(-212.58 -232.085)"/><path class="a" d="M265.4,235.968h0a3.939,3.939,0,0,1,3.914-4.068,4.163,4.163,0,0,1,2.686.844.4.4,0,0,1,.192.345.461.461,0,0,1-.422.46.348.348,0,0,1-.269-.115,3.363,3.363,0,0,0-2.149-.729,3.046,3.046,0,0,0-2.955,3.224v.038a3.023,3.023,0,0,0,3.108,3.262,3.814,3.814,0,0,0,2.264-.768v-1.957H269.66a.384.384,0,0,1,0-.768h2.533a.436.436,0,0,1,.422.461v2.379a.661.661,0,0,1-.307.537,4.756,4.756,0,0,1-2.84.959A3.981,3.981,0,0,1,265.4,235.968Z" transform="translate(-229.404 -231.9)"/><path class="a" d="M288.2,235.968h0a3.991,3.991,0,1,1,7.982-.038v.038a3.991,3.991,0,1,1-7.982,0Zm7.061,0h0a3.125,3.125,0,0,0-3.07-3.262,3.091,3.091,0,0,0-3.07,3.224v.038a3.074,3.074,0,1,0,6.14,0Z" transform="translate(-243.454 -231.9)"/><path class="a" d="M313.9,232.66a.461.461,0,0,1,.422-.461h2.917a3.241,3.241,0,0,1,2.226.768,2.143,2.143,0,0,1,.614,1.535v.038a2.287,2.287,0,0,1-2.072,2.264l1.957,2.494c.077.115.154.192.154.307a.461.461,0,0,1-.461.422.585.585,0,0,1-.422-.23l-2.187-2.878h-2.264v2.648a.467.467,0,0,1-.461.461.436.436,0,0,1-.422-.461Zm3.3,3.569c1.19,0,2-.614,2-1.612v-.038c0-.959-.729-1.535-2-1.535h-2.418v3.185Z" transform="translate(-259.292 -232.085)"/><path class="a" d="M334.9,239.606V232.66a.461.461,0,0,1,.422-.461H340.2a.384.384,0,0,1,0,.768h-4.413v2.686H339.7a.384.384,0,1,1,0,.768h-3.914v2.725h4.452a.384.384,0,1,1,0,.767h-4.912C335.13,240.029,334.9,239.837,334.9,239.606Z" transform="translate(-272.233 -232.085)"/></g><path class="b" d="M331.9,118.7" transform="translate(-203.053 -70.499)"/><path class="a" d="M328.819,50.2a1.9,1.9,0,0,1-1.919-1.919v-.115a9.378,9.378,0,0,1,9.364-9.248h29.664a15.388,15.388,0,0,0,0-30.777h-19.8a1.919,1.919,0,0,1,0-3.838h19.8a19.226,19.226,0,0,1,0,38.452H336.264a5.552,5.552,0,0,0-5.526,5.526A1.9,1.9,0,0,1,328.819,50.2Z" transform="translate(-199.972 0)"/><path class="b" d="M397.2,99.5" transform="translate(-243.294 -58.667)"/><path class="a" d="M186.512,57.335a12.253,12.253,0,0,1-9.709-4.8,9.217,9.217,0,0,1-2.878.46,9.335,9.335,0,0,1-9.325-9.325V11.054a6.754,6.754,0,0,1,13.508,0V45.093a8.386,8.386,0,0,0,1.036,4.029,218.31,218.31,0,0,1,.077.077,8.383,8.383,0,0,0,12.817,2.187,1.931,1.931,0,1,1,2.533,2.917A12.224,12.224,0,0,1,186.512,57.335Zm-15.12-49.2a2.915,2.915,0,0,0-2.917,2.917V43.673a5.487,5.487,0,0,0,5.488,5.488A9.411,9.411,0,0,0,175,49.084a12.2,12.2,0,0,1-.652-3.953V11.054A2.973,2.973,0,0,0,171.392,8.138Z" transform="translate(-99.955)"/><path class="a" d="M31.565,62.592A29.2,29.2,0,0,1,2.4,33.427V11.054a6.754,6.754,0,1,1,13.508,0V33.849a8,8,0,0,0,3.914,6.869,1.935,1.935,0,0,1-1.957,3.339,11.887,11.887,0,0,1-5.795-10.169V11.054a2.917,2.917,0,0,0-5.833,0V33.427a25.328,25.328,0,1,0,50.655,0V23.6a1.919,1.919,0,0,1,3.838,0v9.862A29.218,29.218,0,0,1,31.565,62.592Z" transform="translate(0 0)"/><path class="a" d="M14.22,45.707A11.825,11.825,0,0,1,2.4,33.887a1.919,1.919,0,0,1,3.838,0,7.976,7.976,0,0,0,7.982,7.982,7.758,7.758,0,0,0,3.914-1.036A8.017,8.017,0,0,0,22.2,33.887L22.125,23.6a19.3,19.3,0,0,1,38.606,0v9.862a1.919,1.919,0,0,1-3.838,0V23.6a15.465,15.465,0,1,0-30.93,0l.077,10.285A11.885,11.885,0,0,1,20.014,44.21,12.173,12.173,0,0,1,14.22,45.707Z" transform="translate(0 0)"/><path class="a" d="M214.572,62.592a16.623,16.623,0,0,1-16.616-16.617l-.23-34.922a2.915,2.915,0,0,0-2.917-2.917h-14.89a1.919,1.919,0,0,1,0-3.838H220.98a10.269,10.269,0,0,1,10.246,10.246V45.976A16.706,16.706,0,0,1,214.572,62.592Zm-13.7-54.455a6.766,6.766,0,0,1,.652,2.917l.23,34.922a12.779,12.779,0,0,0,25.558,0V14.546A6.42,6.42,0,0,0,220.9,8.138Z" transform="translate(-108.213)"/><path class="a" d="M176.289,12.973a1.9,1.9,0,0,1-1.919-1.919,2.917,2.917,0,1,0-5.833,0,1.919,1.919,0,0,1-3.838,0,6.754,6.754,0,1,1,13.508,0A1.924,1.924,0,0,1,176.289,12.973Z" transform="translate(-100.017 0)"/></g></svg>