<svg xmlns="http://www.w3.org/2000/svg" width="34.474" height="24.788" viewBox="0 0 34.474 24.788"><defs><style>.a{fill:#fff;}</style></defs><path class="a" d="M11,95.084V93.872c.022-.072.05-.151.065-.224a6.277,6.277,0,0,1,3.692-4.99.809.809,0,0,0,.577-.858,6.406,6.406,0,0,1,7.124-6.187.594.594,0,0,0,.692-.324,8.534,8.534,0,0,1,13.008-1.817,8.329,8.329,0,0,1,2.783,7.247c-.043.425-.144.851-.216,1.3.065,0,.108.007.151.007a6.428,6.428,0,0,1,6.165,4.16,16.525,16.525,0,0,1,.433,1.687v1.211a1.274,1.274,0,0,0-.058.224,8.247,8.247,0,0,1-1.752,4.16,6.077,6.077,0,0,1-5.047,2.56c-2.625-.036-5.249-.007-7.874-.007-.108,0-.216-.007-.317-.014V95.552h2.134c-1.449-2.178-2.863-4.3-4.312-6.468-1.449,2.178-2.87,4.3-4.326,6.5H26.07v6.425c-.087.007-.151.007-.216.007-2.812,0-5.631.007-8.444-.007a4.9,4.9,0,0,1-2.495-.707,7.928,7.928,0,0,1-3.548-4.651A12.653,12.653,0,0,1,11,95.084Z" transform="translate(-11 -77.24)"/></svg>